<svg width="58" height="54" viewBox="0 0 58 54" fill="none" xmlns="http://www.w3.org/2000/svg">
<path fill-rule="evenodd" clip-rule="evenodd" d="M10.5557 47.6943C10.5994 48.2801 10.6404 48.6145 10.6732 48.8819C10.717 49.2417 10.747 49.4837 10.747 49.9486C10.747 50.9324 11.8324 51.8686 13.5848 52.5818C15.4494 53.3428 18.0357 53.8108 20.9007 53.8108C23.7658 53.8108 26.3522 53.3396 28.2166 52.5818C29.9691 51.8686 31.0545 50.9325 31.0545 49.9486C31.0545 49.471 31.0955 49.0506 31.1419 48.5667C31.1665 48.3024 31.1966 48.0127 31.2212 47.6719C27.4812 49.5123 23.5855 49.9167 20.8818 49.9772C18.2135 50.0377 14.3122 49.6269 10.5501 47.6942L10.5557 47.6943ZM2.56717 27.966C2.14615 27.2687 1.83173 26.5427 1.64584 25.82C1.47907 25.18 1.41072 24.54 1.449 23.916C1.03618 24.1675 0.705372 24.4254 0.456563 24.6929C0.166768 25.0049 0.00820265 25.3137 0 25.6162C0 25.6576 0.0027334 25.7022 0.00546785 25.7436C0.0765481 26.5269 1.00063 27.2846 2.56991 27.9661L2.56717 27.966ZM36.8286 29.6345C39.054 28.9849 40.719 28.1762 41.6239 27.2592C41.1537 36.8115 37.7637 42.2084 33.6656 45.2488C29.3268 48.4678 24.1842 49.0664 20.8738 49.1428C17.0026 49.2288 10.4518 48.3023 5.72267 42.9594C2.81654 39.6799 0.591115 34.7227 0.082579 27.2937C0.790652 27.9942 1.94987 28.6342 3.46442 29.185C3.49996 29.2041 3.5355 29.2169 3.57104 29.2232C4.23811 29.462 4.97354 29.6849 5.77183 29.8887C9.63211 30.8757 14.9578 31.4871 20.8354 31.4871C26.7134 31.4871 32.0392 30.8757 35.8991 29.8887C36.2135 29.8091 36.5197 29.7263 36.8122 29.6403C36.8177 29.6403 36.8204 29.6372 36.8259 29.6372L36.8286 29.6345ZM35.2675 22.0978C35.6011 22.429 35.9045 22.8079 36.1725 23.2345C36.7138 24.0942 37.0528 25.0654 37.2032 26.0842C37.3262 26.9216 37.3235 27.7909 37.2032 28.6602C40 27.7909 41.6759 26.737 41.6759 25.6449C41.6759 24.9476 40.9323 24.2439 39.6145 23.5784C38.5127 23.0244 37.0364 22.5213 35.2703 22.0978H35.2675ZM30.8003 30.0102C31.235 29.558 31.533 29.0231 31.6642 28.5041C31.79 28.0074 31.7572 27.5298 31.5357 27.1763C31.2979 26.7974 30.8796 26.6159 30.3902 26.6287C29.8571 26.6414 29.2557 26.8834 28.7062 27.3515C28.1567 27.8195 27.7767 28.4149 27.6017 29.0039C27.4541 29.5038 27.4623 29.9878 27.6536 30.3572C28.7472 30.2617 29.797 30.1439 30.8004 30.007L30.8003 30.0102ZM26.8881 30.4241C26.7295 29.9083 26.7487 29.3224 26.9209 28.7366C27.1369 28.0042 27.6016 27.2687 28.2605 26.6988C28.2742 26.686 28.2879 26.6733 28.3015 26.6637C28.9659 26.1065 29.7095 25.8168 30.3738 25.7977C31.0928 25.7786 31.7271 26.0747 32.1126 26.686C32.4735 27.2591 32.5364 27.9947 32.3505 28.7397C32.2548 29.1154 32.0962 29.4943 31.8775 29.8541C32.5637 29.7459 33.2226 29.628 33.8541 29.5007C34.1193 28.7811 34.2478 28.0455 34.2232 27.3483C34.1986 26.6319 34.0127 25.9537 33.6518 25.3773C33.0476 24.4126 32.0524 23.9095 30.937 23.8744C29.7861 23.8394 28.5121 24.2979 27.3802 25.2595C26.5026 26.0077 25.8465 26.9438 25.4446 27.9308C25.0919 28.8033 24.9388 29.7107 25.0154 30.5481C25.6469 30.5163 26.2703 30.4749 26.88 30.4303L26.8881 30.4241ZM17.4095 6.41648L21.2015 6.17131L57.303 3.82467C57.4998 3.81193 57.672 3.71323 57.7978 3.56039C57.9208 3.40756 57.9974 3.20059 57.9974 2.97134V1.16602C57.9974 1.03866 57.9782 0.92085 57.9372 0.815773C57.899 0.710697 57.8361 0.615181 57.7568 0.529211C57.6748 0.44324 57.5873 0.382743 57.4943 0.344539C57.4014 0.309515 57.3002 0.296778 57.1909 0.309514L17.2975 4.69076C17.1088 4.71305 16.9421 4.81494 16.8218 4.96777C16.7042 5.12061 16.6304 5.3212 16.6304 5.54409V5.56C16.6304 5.68418 16.6495 5.79881 16.6878 5.9007C16.7261 6.00578 16.7835 6.10129 16.86 6.18408C16.9366 6.26687 17.0213 6.33055 17.1116 6.36876C17.2018 6.40696 17.3002 6.42288 17.4068 6.41651L17.4095 6.41648ZM18.4102 9.15796C18.3172 8.50842 18.402 7.89705 18.8093 7.38125L17.3849 7.34941C17.2783 7.34622 17.1826 7.36533 17.0951 7.40672C17.0104 7.44811 16.9284 7.50861 16.8545 7.59458C16.7807 7.67736 16.726 7.77289 16.6878 7.87478C16.6522 7.97348 16.6331 8.08492 16.6331 8.20911V8.23139C16.6331 8.46064 16.7096 8.66761 16.8327 8.82045C16.9584 8.97328 17.1307 9.07517 17.3248 9.0879L18.4102 9.16113L18.4102 9.15796ZM17.426 25.6478C17.6037 25.3803 17.8197 25.151 18.0384 24.9282C18.6699 24.2723 19.2933 23.6259 17.9099 21.1933C17.8142 21.0245 17.724 20.8622 17.642 20.703C16.6987 20.7412 15.7638 20.7921 14.8452 20.8622C14.3039 20.9036 13.7707 20.9481 13.2513 20.9991C14.7823 21.967 16.0208 23.2184 16.8519 24.562C17.0706 24.9186 17.2647 25.2816 17.426 25.6446L17.426 25.6478ZM23.0743 25.6891C23.1782 25.4408 23.3039 25.1765 23.4324 24.9122C24.0448 23.6323 24.6545 22.3587 23.1344 20.5246C21.6308 18.7129 21.6663 17.7259 22.3006 17.0126C22.6177 16.656 23.0743 16.4172 23.5527 16.1688C24.351 15.7549 25.2122 15.3059 25.1138 14.2839C25.0756 13.9018 24.8678 13.3478 24.6381 12.7396C24.3702 12.0264 24.0722 11.24 23.9464 10.4598C23.7633 9.33269 23.9109 8.26285 24.8979 7.51457L23.859 7.49228C21.9944 7.91257 21.5871 8.69588 21.7292 9.56194C21.8358 10.2242 22.2186 10.9725 22.5712 11.6602C22.8802 12.2684 23.17 12.8319 23.2739 13.3287C23.5117 14.4558 22.6287 14.9971 21.6417 15.6021C21.1934 15.8759 20.7204 16.1657 20.3677 16.5191C19.6678 17.2164 19.4409 18.2767 20.9719 20.3559C23.0415 23.1674 22.1202 24.4156 21.1961 25.6668C20.7395 26.2845 20.2857 26.9022 20.3841 27.7397C20.4114 27.9689 20.2747 28.1791 20.0779 28.2109C19.8811 28.2428 19.7006 28.0836 19.6733 27.8543C19.5284 26.6443 20.0888 25.8834 20.6493 25.1224C21.371 24.1417 22.0928 23.1642 20.4251 20.8971C18.5141 18.3021 18.9023 16.8757 19.9002 15.8823C20.313 15.4684 20.8242 15.1563 21.3054 14.8634C22.0299 14.4208 22.6778 14.0228 22.5739 13.5261C22.4947 13.1472 22.2322 12.6378 21.9533 12.0869C21.5706 11.3355 21.1523 10.5172 21.0211 9.71479C20.8817 8.84873 21.0457 8.04951 21.844 7.44453L20.0642 7.40632C19.214 7.84254 19.0199 8.43476 19.1237 9.07479C19.1429 9.19896 19.1729 9.32632 19.2112 9.45368C19.2139 9.46642 19.2194 9.47597 19.2221 9.48871C19.3862 10.0395 19.6869 10.6254 19.9685 11.1762C20.2774 11.7844 20.5672 12.348 20.6711 12.8447C20.9008 13.9401 20.1216 14.3889 19.2057 14.9144C18.894 15.0927 18.566 15.2837 18.2734 15.5098C17.3029 16.258 16.6878 17.5253 18.5113 20.7316C20.2364 23.7692 19.3861 24.6511 18.5195 25.5523C18.2106 25.8707 17.9016 26.1954 17.8032 26.6826C18.1231 27.8321 18.134 28.9846 17.7732 30.0449C17.7075 30.2328 17.6337 30.4143 17.549 30.5862C18.6206 30.6276 19.7225 30.6531 20.8406 30.6531C21.2152 30.6531 21.5842 30.6499 21.9533 30.6467C21.8931 29.2362 22.172 27.7651 22.757 26.3833C22.8554 26.1508 22.9621 25.9216 23.0769 25.6955L23.0743 25.6891ZM23.7113 26.0744C23.7058 26.0903 23.6976 26.1031 23.6894 26.1158C23.5828 26.3228 23.4871 26.5329 23.3969 26.7463C22.8638 28.0103 22.6095 29.3476 22.6669 30.6276C23.2192 30.6149 23.7659 30.5989 24.3073 30.5767C24.228 29.5992 24.403 28.5611 24.8049 27.5709C25.2532 26.4628 25.9859 25.4153 26.9646 24.5811C28.225 23.508 29.6603 22.9954 30.9616 23.0368C32.2957 23.0782 33.4932 23.6959 34.2369 24.8804C34.6852 25.5968 34.9149 26.431 34.9449 27.313C34.9668 27.9721 34.8766 28.6535 34.6852 29.3254C35.0516 29.2426 35.4069 29.1598 35.7514 29.0706C35.9865 29.0101 36.2162 28.9496 36.4376 28.886C36.6017 27.988 36.6235 27.0838 36.495 26.2241C36.3611 25.3294 36.0658 24.4793 35.5928 23.7278C34.6141 22.1708 33.0667 21.3175 31.3525 21.1965C31.0272 21.1742 30.6991 21.1774 30.3655 21.2092C30.3573 21.2092 30.3519 21.2124 30.3437 21.2124C28.8974 21.3461 27.3938 21.9798 26.0487 23.1229C25.0645 23.9603 24.2771 24.9791 23.7112 26.0777L23.7113 26.0744ZM24.2007 20.7062C25.1274 20.7444 26.0406 20.7985 26.9345 20.8685C27.2982 20.8972 27.6591 20.9258 28.0145 20.9609C27.1915 21.3079 26.3851 21.8014 25.625 22.4478C25.3379 22.693 25.0645 22.9509 24.8103 23.2215C24.9141 22.4669 24.7912 21.6518 24.2007 20.7062ZM26.869 7.55914L57.2782 8.22461C57.4778 8.22779 57.6583 8.3265 57.7895 8.48252C57.918 8.63535 58 8.84869 58 9.08112V10.8897C58 11.0139 57.9809 11.1285 57.9426 11.2304C57.9043 11.3323 57.8469 11.4278 57.7704 11.5106C57.6911 11.5966 57.6091 11.6602 57.5188 11.6953C57.4286 11.7335 57.3302 11.7494 57.2208 11.743L24.6132 9.56511C24.6843 8.67998 25.242 7.91898 26.8715 7.55275L26.869 7.55914ZM11.8075 21.1137C13.7512 22.0721 15.3096 23.4986 16.2692 25.0492C16.6082 25.6 16.8734 26.1636 17.0511 26.7272C17.0347 26.9182 17.0402 27.1315 17.0675 27.3672C17.0839 27.5136 17.1632 27.6314 17.2698 27.6888C17.3683 28.3988 17.319 29.0898 17.0976 29.7329C17.0375 29.908 16.9664 30.0768 16.8816 30.2392C16.8269 30.3442 16.7695 30.4493 16.7067 30.5448C15.6568 30.4907 14.6344 30.4175 13.6447 30.3283C13.7048 30.2742 13.7622 30.2169 13.8169 30.1564C14.1805 29.7679 14.4758 29.284 14.6726 28.714C15.0171 27.7078 14.9788 26.6317 14.6398 25.7083C14.3008 24.7849 13.6557 24.0144 12.7917 23.6132C11.9251 23.212 11.0037 23.2534 10.2109 23.6514C9.41807 24.0462 8.75646 24.7976 8.41198 25.8038C8.09758 26.724 8.10032 27.6983 8.36277 28.5644C8.48853 28.9751 8.66897 29.3635 8.90409 29.7074C7.83243 29.5195 6.83453 29.3062 5.91866 29.0738C5.15593 28.8795 4.45324 28.6726 3.82174 28.4529C3.09722 27.5391 2.58329 26.5552 2.32903 25.5809C2.0857 24.648 2.0857 23.7246 2.37003 22.8904C2.85941 21.4576 4.11156 20.5215 5.73823 20.1616C7.42229 19.7891 9.49465 20.0406 11.5533 20.9958C11.6271 21.0308 11.7009 21.0658 11.772 21.1009C11.7802 21.1072 11.7911 21.1104 11.8021 21.1136L11.8075 21.1137Z" fill="black"/>
</svg>
